<svg width="48" height="48" viewBox="0 0 48 48" fill="none" xmlns="http://www.w3.org/2000/svg">
<rect width="48" height="48" rx="10" fill="url(#paint0_linear_482_495)"/>
<path d="M11.5842 17.5C12.8642 17.5 13.8176 17.8 14.4442 18.4C15.0709 19 15.3842 19.8867 15.3842 21.06C15.3842 21.6867 15.2309 22.24 14.9242 22.72C14.6176 23.1867 14.1642 23.5533 13.5642 23.82C12.9642 24.0733 12.2242 24.2 11.3442 24.2L11.4242 23.3C11.8376 23.3 12.3109 23.36 12.8442 23.48C13.3776 23.5867 13.8909 23.7867 14.3842 24.08C14.8909 24.36 15.3042 24.76 15.6242 25.28C15.9576 25.7867 16.1242 26.44 16.1242 27.24C16.1242 28.12 15.9776 28.84 15.6842 29.4C15.4042 29.96 15.0309 30.3933 14.5642 30.7C14.0976 31.0067 13.5976 31.22 13.0642 31.34C12.5309 31.4467 12.0176 31.5 11.5242 31.5H6.54422C6.19755 31.5 5.90422 31.3867 5.66422 31.16C5.43755 30.92 5.32422 30.6267 5.32422 30.28V18.72C5.32422 18.3733 5.43755 18.0867 5.66422 17.86C5.90422 17.62 6.19755 17.5 6.54422 17.5H11.5842ZM11.2242 19.86H7.66422L7.92422 19.54V23.16L7.68422 22.98H11.2842C11.6709 22.98 12.0176 22.8533 12.3242 22.6C12.6309 22.3467 12.7842 21.98 12.7842 21.5C12.7842 20.9267 12.6376 20.5133 12.3442 20.26C12.0642 19.9933 11.6909 19.86 11.2242 19.86ZM11.3842 25.34H7.74422L7.92422 25.18V29.4L7.72422 29.2H11.5242C12.1376 29.2 12.6242 29.04 12.9842 28.72C13.3442 28.3867 13.5242 27.8933 13.5242 27.24C13.5242 26.64 13.4042 26.2067 13.1642 25.94C12.9242 25.6733 12.6376 25.5067 12.3042 25.44C11.9709 25.3733 11.6642 25.34 11.3842 25.34ZM28.2297 18.18C28.5764 18.3533 28.7764 18.6267 28.8297 19C28.8964 19.3733 28.803 19.7133 28.5497 20.02C28.3764 20.26 28.1497 20.3933 27.8697 20.42C27.603 20.4467 27.3297 20.3933 27.0497 20.26C26.7297 20.1133 26.3897 20 26.0297 19.92C25.683 19.84 25.3164 19.8 24.9297 19.8C24.2097 19.8 23.563 19.9133 22.9897 20.14C22.4297 20.3667 21.9497 20.6933 21.5497 21.12C21.1497 21.5333 20.843 22.0267 20.6297 22.6C20.4297 23.1733 20.3297 23.8067 20.3297 24.5C20.3297 25.3133 20.443 26.02 20.6697 26.62C20.9097 27.22 21.2364 27.72 21.6497 28.12C22.063 28.52 22.5497 28.82 23.1097 29.02C23.6697 29.2067 24.2764 29.3 24.9297 29.3C25.2897 29.3 25.6497 29.2667 26.0097 29.2C26.3697 29.1333 26.7164 29.0133 27.0497 28.84C27.3297 28.7067 27.603 28.66 27.8697 28.7C28.1497 28.74 28.383 28.88 28.5697 29.12C28.8364 29.4533 28.9297 29.8 28.8497 30.16C28.783 30.5067 28.583 30.76 28.2497 30.92C27.903 31.0933 27.543 31.24 27.1697 31.36C26.8097 31.4667 26.443 31.5467 26.0697 31.6C25.6964 31.6667 25.3164 31.7 24.9297 31.7C23.9697 31.7 23.0564 31.5467 22.1897 31.24C21.3364 30.9333 20.5697 30.48 19.8897 29.88C19.223 29.28 18.6964 28.5333 18.3097 27.64C17.923 26.7333 17.7297 25.6867 17.7297 24.5C17.7297 23.4733 17.903 22.5267 18.2497 21.66C18.6097 20.7933 19.1097 20.0467 19.7497 19.42C20.403 18.78 21.1697 18.2867 22.0497 17.94C22.9297 17.58 23.8897 17.4 24.9297 17.4C25.5164 17.4 26.0897 17.4667 26.6497 17.6C27.2097 17.7333 27.7364 17.9267 28.2297 18.18ZM41.5888 17.5C41.9088 17.5 42.1688 17.6067 42.3688 17.82C42.5688 18.0333 42.6688 18.3 42.6688 18.62V30.28C42.6688 30.6267 42.5488 30.92 42.3088 31.16C42.0821 31.3867 41.7954 31.5 41.4488 31.5C41.2754 31.5 41.0954 31.4733 40.9088 31.42C40.7354 31.3533 40.6021 31.2667 40.5088 31.16L32.6488 21.18L33.1688 20.86V30.38C33.1688 30.7 33.0621 30.9667 32.8488 31.18C32.6488 31.3933 32.3821 31.5 32.0488 31.5C31.7288 31.5 31.4688 31.3933 31.2688 31.18C31.0688 30.9667 30.9688 30.7 30.9688 30.38V18.72C30.9688 18.3733 31.0821 18.0867 31.3088 17.86C31.5488 17.62 31.8421 17.5 32.1888 17.5C32.3754 17.5 32.5688 17.54 32.7688 17.62C32.9688 17.6867 33.1154 17.7933 33.2088 17.94L40.8288 27.66L40.4887 27.9V18.62C40.4887 18.3 40.5888 18.0333 40.7888 17.82C40.9888 17.6067 41.2554 17.5 41.5888 17.5Z" fill="white"/>
<defs>
<linearGradient id="paint0_linear_482_495" x1="0" y1="0" x2="48" y2="48" gradientUnits="userSpaceOnUse">
<stop stop-color="#2FA0C6"/>
<stop offset="1" stop-color="#1C4E75"/>
</linearGradient>
</defs>
</svg>
